<svg id="Layer_1" data-name="Layer 1" xmlns="http://www.w3.org/2000/svg" viewBox="0 0 885.4 204.49"><defs><style>.cls-1{fill:#7d4714}.cls-2{font-size:38px;fill:gray;font-family:Trebuchet MS}</style></defs><title>ingi asset</title><path class="cls-1" d="M189.37 220c0 21.39-32.43 21.39-32.43 0s32.43-21.39 32.43 0m-29.95 142.28h27.47V250.82h-27.47v111.46zm133.98 0v-58.1c0-16.89-9.23-29.72-26.8-29.72-16.89 0-28.37 14.19-28.37 31.08v56.74H211V251h24.54l1.8 15.08c11.26-11 22.52-16.66 36.48-16.66 26.12 0 47.06 19.59 47.06 54.49v58.32H293.4zm198.83-45.7c1.8 13.73 13.74 23.64 33.1 23.64 10.13 0 23.42-3.83 29.72-10.36l17.57 17.34c-11.71 12.16-30.85 18-47.74 18-38.28 0-61-23.64-61-59.22 0-33.78 23-58.09 59-58.09 37.15 0 60.35 23 56.07 68.68h-86.72zm60.35-22.75c-1.8-14.41-13.06-21.62-28.82-21.62-14.86 0-27 7.21-31.07 21.62h59.9z" transform="translate(-156.94 -203.93)"/><path class="cls-1" d="M492.23 316.58c1.8 13.73 13.74 23.64 33.1 23.64 10.13 0 23.42-3.83 29.72-10.36l17.57 17.34c-11.71 12.16-30.85 18-47.74 18-38.28 0-61-23.64-61-59.22 0-33.78 23-58.09 59-58.09 37.15 0 60.35 23 56.07 68.68h-86.72zm60.35-22.75c-1.8-14.41-13.06-21.62-28.82-21.62-14.86 0-27 7.21-31.07 21.62h59.9z" transform="translate(-156.94 -203.93)"/><path class="cls-1" d="M492.23 316.58c1.8 13.73 13.74 23.64 33.1 23.64 10.13 0 23.42-3.83 29.72-10.36l17.57 17.34c-11.71 12.16-30.85 18-47.74 18-38.28 0-61-23.64-61-59.22 0-33.78 23-58.09 59-58.09 37.15 0 60.35 23 56.07 68.68h-86.72zm60.35-22.75c-1.8-14.41-13.06-21.62-28.82-21.62-14.86 0-27 7.21-31.07 21.62h59.9zm129.25 68.45v-58.1c0-16.89-9.23-29.72-26.8-29.72-16.89 0-28.37 14.19-28.37 31.08v56.74h-27.25V251H624l1.8 15.08c11.26-11 22.52-16.66 36.48-16.66 26.12 0 47.06 19.59 47.06 54.49v58.32h-27.51zM762.89 220c0 21.39-32.43 21.39-32.43 0s32.43-21.39 32.43 0m-29.95 142.28h27.47V250.82h-27.47v111.46zm262.34-112.07c-14.41 0-27.25 4.5-37.15 20.26-6.3-15.31-19.59-20.72-32.87-20.72-10.58 0-23.42 4.05-29.28 15.31l-27.48-13.79V308c0 16.89-11.49 31.07-28.37 31.07-17.56 0-26.8-12.83-26.8-29.72v-58.08h-27.47v58.32c0 34.45 19.37 54.49 45.93 54.49 15.54 0 26.12-5.41 37.61-16.67l.14.08 26.46 15.3v-59.44c0-14.64 8.79-27.92 23.64-27.92 15.09 0 22.75 13.29 22.75 27.92v59.44h27.47v-59.44c0-14.64 9.23-27.47 24.09-27.47s20.94 12.39 20.94 27v59.89h27.47V302.9c0-33.33-15.54-52.69-47.06-52.69M417.54 397.16a20.35 20.35 0 0 0 .18-2.61c0-12.35-10.75-19.9-23.72-19.9-13.16 0-23.9 7.41-23.9 19.9a20.67 20.67 0 0 0 .18 2.61h-22.5c-.06-.86-.11-1.73-.11-2.61 0-22.37 17.79-36 46.33-36 33.34 0 46.14 23.41 46.14 36 0 .88 0 1.75-.11 2.61h-22.5zm45.68-137.83l-22.12-25.11a2.59 2.59 0 0 0-.63-.52 2.75 2.75 0 0 0-.76-.29l-32.76-6.81a2.54 2.54 0 0 0-2.42 4.16l9.85 11.18 4.59 5.21-2.35 2.53c-7-4.41-15.15-5.43-23.09-5.43-29.21 0-52.93 20.33-52.93 52.93s20.32 52.51 52.93 52.51c38.1 0 52.72-34.12 52.72-52.51 0-11.22-2.86-21.41-10.57-30.39l6.64-7.14 3.91.81 11.14 2.31-5.76 9.91a2.54 2.54 0 0 0 4.39 2.56l7.53-13a2.52 2.52 0 0 0-.29-3m-69.69 66.85c-15 0-27.31-10.8-27.31-29s12.28-29.43 27.31-29.43c14.82 0 27.1 11.43 27.1 29.43s-12.28 29-27.1 29" transform="translate(-156.94 -203.93)"/><circle class="cls-1" cx="220.62" cy="88.42" r="6.2"/><path class="cls-1" transform="rotate(17.99 962.938 -247.814)" d="M388.86 333.49h16.95v32.96h-16.95z"/><text class="cls-2" transform="translate(469.2 194.53)">Creating<tspan x="143.93" y="0"> </tspan><tspan x="154.69" y="0">The Creators...</tspan></text></svg>